<svg width="20" height="20" xmlns="http://www.w3.org/2000/svg"><path d="M13.015 4.493a6.84 6.84 0 00-6.14-3.83C3.085.664 0 3.73 0 7.5c0 1.024.22 2.006.654 2.921l-.642 3.214a.587.587 0 00.688.69l3.253-.644c.438.208.891.366 1.357.475-1.044-4.943 2.703-9.583 7.705-9.663z"/><path d="M19.346 15.421c.112-.237.21-.478.293-.723h-.021c1.463-4.294-1.614-8.806-6.155-9.026-3.908-.18-7.154 2.948-7.154 6.828 0 3.766 3.06 6.83 6.825 6.835 1.021-.001 2-.221 2.913-.654 3.563.704 3.285.654 3.367.654.37 0 .647-.339.574-.7l-.642-3.214z"/></svg>