<svg width="20" height="20" xmlns="http://www.w3.org/2000/svg"><path d="M13.571 14.286a.712.712 0 01-.505-.21L5.923 6.934a.714.714 0 111.01-1.01l7.143 7.142a.714.714 0 01-.505 1.22z"/><path d="M6.428 14.286a.714.714 0 01-.505-1.22l7.143-7.142a.714.714 0 111.01 1.01l-7.143 7.142a.711.711 0 01-.505.21z"/><path d="M10 20C4.486 20 0 15.514 0 10S4.486 0 10 0s10 4.486 10 10-4.486 10-10 10zm0-18.571c-4.726 0-8.571 3.845-8.571 8.571 0 4.726 3.845 8.572 8.571 8.572 4.726 0 8.572-3.846 8.572-8.572 0-4.726-3.846-8.571-8.572-8.571z"/></svg>