<svg width="20" height="20" viewBox="0 0 20 20" xmlns="http://www.w3.org/2000/svg">
  <path d="M13.0153 4.49349C11.8863 2.18804 9.52441 0.663818 6.87514 0.663818C3.08433 0.663818 0.000301026 3.73035 0.000301026 7.4996C0.000301026 8.52395 0.220218 9.50576 0.65427 10.4212L0.0116679 13.6346C-0.070127 14.0436 0.290724 14.4052 0.699855 14.3242L3.95287 13.6811C4.39086 13.8889 4.84398 14.0469 5.30955 14.1557C4.26594 9.21284 8.01257 4.5731 13.0153 4.49349Z"/>
  <path d="M19.3457 15.4212C19.458 15.1844 19.5556 14.9432 19.6391 14.698H19.6177C21.0805 10.4044 18.0042 5.89189 13.4628 5.67217C13.4628 5.67193 13.4627 5.6717 13.4627 5.67147C9.55508 5.49139 6.30859 8.62007 6.30859 12.4996C6.30859 16.2657 9.3695 19.3298 13.1343 19.3352C14.1555 19.3339 15.1343 19.114 16.0471 18.6811C19.6098 19.3854 19.3319 19.3354 19.4138 19.3354C19.784 19.3354 20.0606 18.9961 19.9883 18.6346L19.3457 15.4212Z"/>
</svg>
