<svg xmlns="http://www.w3.org/2000/svg" viewBox="0 0 20 20">
	<path d="M16,20H4c-2.2,0-4-1.8-4-4V4c0-2.2,1.8-4,4-4h12c2.2,0,4,1.8,4,4v12C20,18.2,18.2,20,16,20z M4,2C2.9,2,2,2.9,2,4v12c0,1.1,0.9,2,2,2h12c1.1,0,2-0.9,2-2V4c0-1.1-0.9-2-2-2H4z"/>
	<path d="M5,5h10c0.6,0,1,0.4,1,1l0,0c0,0.6-0.4,1-1,1H5C4.4,7,4,6.6,4,6l0,0C4,5.4,4.4,5,5,5z"/>
	<path d="M5,9h10c0.6,0,1,0.4,1,1l0,0c0,0.6-0.4,1-1,1H5c-0.6,0-1-0.4-1-1l0,0C4,9.4,4.4,9,5,9z"/>
	<path d="M5,13h10c0.6,0,1,0.4,1,1l0,0c0,0.6-0.4,1-1,1H5c-0.6,0-1-0.4-1-1l0,0C4,13.4,4.4,13,5,13z"/>
</svg>
