<svg width="20" height="20" viewBox="0 0 20 20" xmlns="http://www.w3.org/2000/svg">
  <path d="M13.5713 14.2857C13.3885 14.2857 13.2057 14.216 13.0662 14.0764L5.92342 6.93359C5.64434 6.65451 5.64434 6.20254 5.92342 5.92361C6.20235 5.64468 6.65447 5.64453 6.9334 5.92361L14.0762 13.0664C14.3553 13.3455 14.3553 13.7975 14.0762 14.0764C13.9367 14.216 13.7541 14.2857 13.5713 14.2857Z"/>
  <path d="M6.42834 14.2858C6.24554 14.2858 6.06289 14.2161 5.92342 14.0764C5.64434 13.7975 5.64434 13.3454 5.92342 13.0665L13.0662 5.92367C13.3453 5.64458 13.7973 5.64458 14.0762 5.92367C14.3551 6.2026 14.3553 6.65472 14.0762 6.93365L6.9334 14.0764C6.79394 14.2161 6.61114 14.2858 6.42834 14.2858Z"/>
  <path d="M10 20C4.48593 20 0 15.5141 0 10C0 4.48593 4.48593 0 10 0C15.5141 0 20 4.48593 20 10C20 15.5141 15.5141 20 10 20ZM10 1.42853C5.27374 1.42853 1.42853 5.27374 1.42853 10C1.42853 14.7263 5.27374 18.5715 10 18.5715C14.7263 18.5715 18.5715 14.7263 18.5715 10C18.5715 5.27374 14.7263 1.42853 10 1.42853Z"/>
</svg>
