<svg width="20" height="19" viewBox="0 0 20 19" xmlns="http://www.w3.org/2000/svg">
  <path d="M19.3613 16.8797L14.6012 12.5404C15.8251 11.2652 16.4957 9.66068 16.4957 7.99034C16.4957 4.08773 12.8732 0.912598 8.4207 0.912598C3.96821 0.912598 0.345703 4.08773 0.345703 7.99034C0.345703 11.8929 3.96821 15.0681 8.4207 15.0681C10.0922 15.0681 11.6851 14.6262 13.047 13.7873L17.8432 18.1595C18.0436 18.342 18.3133 18.4426 18.6022 18.4426C18.8757 18.4426 19.1352 18.3512 19.3321 18.1851C19.7506 17.8321 19.764 17.2468 19.3613 16.8797ZM8.4207 2.75896C11.7118 2.75896 14.3892 5.1057 14.3892 7.99034C14.3892 10.875 11.7118 13.2217 8.4207 13.2217C5.12961 13.2217 2.45222 10.875 2.45222 7.99034C2.45222 5.1057 5.12961 2.75896 8.4207 2.75896Z"/>
</svg>
