<?xml version="1.0" standalone="no"?>
<!DOCTYPE svg PUBLIC "-//W3C//DTD SVG 20010904//EN"
 "http://www.w3.org/TR/2001/REC-SVG-20010904/DTD/svg10.dtd">
<svg version="1.0" xmlns="http://www.w3.org/2000/svg"
 width="512.000000pt" height="512.000000pt" viewBox="0 0 512.000000 512.000000"
 preserveAspectRatio="xMidYMid meet">
<metadata>
Created by potrace 1.11, written by Peter Selinger 2001-2013
</metadata>
<g transform="translate(0.000000,512.000000) scale(0.100000,-0.100000)"
fill="#000000" stroke="none">
<path d="M1315 4741 c2 -4 -21 -6 -51 -6 -30 0 -54 -3 -54 -7 0 -4 -10 -6 -22
-4 -13 2 -28 0 -33 -5 -6 -4 -27 -10 -46 -12 -19 -2 -40 -7 -47 -11 -7 -4 -12
-5 -12 -1 0 3 -13 -1 -30 -10 -16 -8 -33 -14 -37 -13 -4 0 -21 -4 -38 -11 -16
-7 -35 -14 -40 -15 -6 -1 -34 -14 -63 -29 -28 -15 -52 -25 -52 -21 0 3 -7 -2
-16 -10 -8 -9 -22 -16 -30 -16 -8 0 -14 -4 -14 -9 0 -5 -10 -13 -22 -17 -12
-3 -28 -12 -35 -18 -31 -28 -43 -36 -43 -31 0 5 -29 -17 -55 -42 -8 -7 -16
-13 -19 -13 -5 0 -25 -18 -99 -87 -15 -15 -27 -30 -27 -35 0 -5 -4 -6 -10 -3
-5 3 -10 2 -10 -3 0 -5 -20 -31 -45 -58 -24 -27 -45 -53 -45 -57 0 -5 -5 -5
-12 -1 -6 4 -8 3 -5 -4 9 -13 -2 -44 -13 -37 -5 3 -14 -8 -21 -24 -7 -16 -17
-27 -23 -24 -5 3 -6 1 -3 -4 4 -6 -2 -22 -13 -36 -11 -14 -20 -30 -20 -35 0
-5 -7 -15 -15 -22 -8 -6 -14 -15 -13 -18 2 -11 -25 -66 -37 -74 -5 -4 -7 -8
-3 -8 4 0 1 -12 -7 -27 -8 -15 -12 -30 -9 -35 3 -4 0 -8 -6 -8 -6 0 -9 -4 -5
-9 3 -5 1 -12 -4 -15 -9 -6 -37 -105 -33 -118 1 -5 -3 -8 -9 -8 -6 0 -9 -8 -6
-19 2 -10 1 -25 -4 -32 -4 -8 -11 -41 -14 -74 -4 -33 -8 -64 -9 -70 0 -5 -5
-13 -11 -17 -6 -5 -4 -8 5 -8 13 0 13 -1 0 -10 -11 -7 -11 -10 -2 -10 9 0 10
-5 4 -17 -10 -21 -8 -184 3 -258 4 -27 8 -61 10 -75 1 -14 6 -41 10 -60 5 -19
8 -41 6 -47 -1 -7 3 -13 9 -13 6 0 9 -4 6 -8 -3 -5 2 -28 11 -53 8 -24 17 -55
20 -69 2 -14 8 -26 14 -28 5 -2 9 -12 9 -22 0 -10 5 -22 10 -25 6 -4 8 -11 5
-16 -4 -5 -1 -9 5 -9 6 0 9 -3 7 -7 -2 -5 6 -26 19 -48 12 -22 31 -57 41 -77
10 -21 21 -38 25 -38 5 0 8 -6 8 -14 0 -8 3 -16 8 -18 4 -1 25 -29 47 -62 22
-32 46 -61 53 -63 6 -3 12 -9 12 -14 0 -4 54 -62 120 -129 66 -66 120 -125
120 -130 0 -6 3 -9 8 -8 8 3 382 -371 382 -383 0 -4 9 -10 19 -14 10 -3 29
-21 42 -40 13 -19 27 -35 32 -35 11 0 47 -38 47 -50 0 -5 5 -10 10 -10 10 0
70 -58 127 -123 18 -21 36 -38 40 -40 5 -1 7 -5 6 -10 -2 -4 1 -7 7 -7 13 0
59 -48 52 -54 -3 -3 2 -6 11 -6 10 0 17 -8 17 -17 0 -9 2 -14 5 -11 4 3 38
-29 78 -72 40 -43 77 -79 82 -80 6 0 26 -21 45 -44 19 -24 37 -42 40 -41 3 2
19 -15 35 -36 17 -21 36 -38 43 -39 7 0 11 -4 7 -9 -3 -5 4 -12 15 -16 11 -4
18 -9 16 -13 -2 -4 2 -13 10 -20 8 -7 14 -10 14 -7 0 3 6 0 14 -7 8 -7 12 -16
9 -20 -2 -5 -1 -8 4 -8 9 0 35 -25 137 -129 37 -39 73 -71 79 -71 6 0 8 -2 5
-6 -7 -6 161 -174 173 -174 5 0 9 -5 9 -11 0 -13 58 -69 71 -69 5 0 9 -4 9 -8
0 -7 57 -45 73 -48 4 -1 10 -3 15 -4 4 -1 10 -2 15 -1 4 0 7 -3 7 -8 0 -5 19
-13 43 -17 59 -11 61 -11 69 1 5 6 8 6 8 -2 0 -8 15 -10 48 -7 26 3 55 5 65 5
9 0 17 5 17 11 0 6 3 9 6 6 7 -7 66 19 109 47 17 11 140 130 275 265 135 134
248 244 253 242 4 -1 7 2 7 7 0 13 558 571 570 571 6 0 9 3 8 8 -3 9 185 197
195 194 4 -1 7 3 7 9 0 13 38 49 52 49 5 0 7 4 4 9 -3 5 1 14 9 21 8 7 15 9
15 5 0 -4 10 5 23 21 28 37 119 124 128 124 4 0 9 9 12 20 3 11 12 20 21 20 9
0 16 4 16 10 0 5 88 97 195 204 107 107 208 216 225 242 16 26 30 44 30 38 0
-9 39 51 62 96 7 14 17 28 23 32 6 5 6 8 0 8 -7 0 -7 3 0 8 17 12 55 89 48 96
-3 3 -1 6 5 6 6 0 13 13 17 30 4 16 11 30 16 30 6 0 7 4 4 10 -3 5 -1 19 5 31
9 16 33 95 44 144 1 6 5 19 8 30 9 27 20 109 24 170 1 28 4 52 5 55 7 19 2
170 -6 170 -5 0 -4 4 4 9 10 7 11 13 2 30 -9 16 -9 21 1 21 9 0 10 2 2 8 -7 4
-14 34 -18 67 -3 33 -10 74 -15 92 -5 17 -7 34 -3 37 3 3 0 6 -7 6 -7 0 -9 5
-6 10 4 6 2 16 -3 23 -5 7 -13 28 -17 47 -7 33 -15 55 -45 125 -8 17 -13 33
-12 38 1 4 -3 7 -9 7 -6 0 -9 7 -5 15 3 8 2 15 -2 15 -4 0 -16 17 -27 38 -26
50 -81 136 -97 153 -7 8 -19 26 -27 41 -8 15 -18 25 -23 22 -4 -3 -8 2 -8 10
0 9 -5 16 -10 16 -6 0 -13 7 -17 17 -8 20 -73 83 -87 83 -5 0 -6 3 -3 7 4 3
-6 16 -21 27 -16 12 -35 27 -43 34 -60 52 -86 73 -101 78 -10 3 -18 9 -18 13
0 5 -13 14 -30 21 -16 7 -30 17 -30 22 0 5 -4 7 -9 4 -5 -4 -11 -3 -13 1 -4
11 -128 76 -128 67 0 -3 -7 -1 -15 6 -8 7 -15 9 -15 6 0 -4 -7 0 -16 8 -8 9
-22 16 -29 16 -8 0 -26 5 -42 12 -37 15 -38 15 -110 30 -35 7 -63 15 -63 19 0
3 -14 5 -30 4 -17 -1 -30 1 -30 4 0 4 -23 7 -50 6 -28 0 -50 3 -50 6 0 3 -53
4 -117 3 -65 -1 -118 -2 -118 -4 0 -1 -18 -3 -40 -4 -22 0 -44 -4 -50 -6 -5
-3 -23 -5 -40 -5 -16 0 -32 -3 -35 -6 -3 -4 -21 -9 -41 -12 -20 -2 -43 -8 -50
-13 -8 -5 -21 -7 -31 -6 -9 2 -19 -2 -23 -8 -3 -5 -12 -10 -20 -10 -8 0 -26
-5 -42 -12 -15 -6 -31 -12 -35 -12 -3 -1 -10 -4 -14 -8 -4 -5 -14 -8 -21 -8
-8 0 -27 -10 -42 -21 -16 -12 -34 -18 -40 -15 -6 4 -11 2 -11 -4 0 -6 -8 -14
-17 -17 -10 -4 -29 -15 -42 -25 -13 -10 -27 -15 -32 -12 -5 3 -9 2 -9 -3 0 -4
-20 -21 -45 -36 -25 -16 -45 -34 -45 -40 0 -5 -3 -8 -6 -4 -7 7 -11 4 -161
-142 l-123 -118 -113 111 c-125 122 -152 146 -167 146 -6 0 -10 4 -10 8 0 5
-29 28 -65 53 -79 53 -94 62 -162 91 -29 12 -53 26 -53 30 0 4 -7 5 -15 2 -8
-4 -15 -1 -15 5 0 6 -3 10 -7 9 -5 -1 -21 4 -36 10 -16 7 -34 12 -41 12 -6 0
-16 4 -22 9 -5 5 -22 12 -39 15 -16 2 -43 9 -60 14 -16 5 -36 7 -42 5 -7 -3
-13 -1 -13 4 0 10 -8 11 -107 15 -35 2 -63 6 -63 9 0 3 -49 6 -109 5 -61 0
-108 -2 -106 -5z"/>
</g>
</svg>
